<?xml version="1.0" encoding="UTF-8" standalone="no"?>
<!-- Created with Inkscape (http://www.inkscape.org/) -->

<svg
   width="228.50896mm"
   height="259.79941mm"
   viewBox="0 0 228.50896 259.79941"
   version="1.1"
   id="svg1"
   xml:space="preserve"
   sodipodi:docname="path1.svg"
   inkscape:version="1.3.2 (091e20e, 2023-11-25, custom)"
   xmlns:inkscape="http://www.inkscape.org/namespaces/inkscape"
   xmlns:sodipodi="http://sodipodi.sourceforge.net/DTD/sodipodi-0.dtd"
   xmlns="http://www.w3.org/2000/svg"
   xmlns:svg="http://www.w3.org/2000/svg"><sodipodi:namedview
     id="namedview1"
     pagecolor="#ffffff"
     bordercolor="#000000"
     borderopacity="0.25"
     inkscape:showpageshadow="2"
     inkscape:pageopacity="0.0"
     inkscape:pagecheckerboard="0"
     inkscape:deskcolor="#d1d1d1"
     inkscape:document-units="mm"
     inkscape:zoom="0.79130762"
     inkscape:cx="432.19602"
     inkscape:cy="490.95951"
     inkscape:window-width="1920"
     inkscape:window-height="991"
     inkscape:window-x="-9"
     inkscape:window-y="-9"
     inkscape:window-maximized="1"
     inkscape:current-layer="layer1" /><defs
     id="defs1" /><g
     inkscape:label="Layer 1"
     inkscape:groupmode="layer"
     id="layer1"
     transform="translate(-404.85459,-77.940221)"><path
       style="fill:#ffffff;fill-opacity:1"
       d="m 492.46113,333.31729 c -1.74625,-2.39329 -3.41312,-4.35969 -3.70416,-4.36977 -0.29104,-0.0101 -2.83104,0.52086 -5.64445,1.17986 -2.8134,0.659 -5.17866,1.13598 -5.25612,1.05996 -0.11498,-0.11281 2.07665,-11.58326 3.55062,-18.58313 l 0.35286,-1.67569 h 30.25393 30.25394 l 4.15154,7.95741 c 2.28335,4.37658 4.06166,8.04731 3.9518,8.15717 -0.10986,0.10986 -2.61877,-0.005 -5.57535,-0.25566 -3.20492,-0.27151 -5.4221,-0.3246 -5.49076,-0.13147 -0.0633,0.17816 -1.26286,2.09097 -2.66561,4.25069 l -2.55046,3.92675 -4.93889,-2.76433 c -2.71639,-1.52037 -5.11542,-2.77148 -5.33118,-2.78022 -0.21576,-0.009 -2.24217,1.8891 -4.50314,4.21743 -2.26096,2.32834 -4.19206,4.23334 -4.29133,4.23334 -0.0993,0 -2.29784,-1.41712 -4.88571,-3.14915 l -4.70524,-3.14914 -4.54586,2.90479 c -2.50023,1.59763 -4.70462,2.99879 -4.89865,3.11369 -0.19403,0.1149 -1.78153,-1.74924 -3.52778,-4.14253 z m 102.20602,-18.55132 c -2.0262,-1.00248 -4.52238,-3.81059 -5.78416,-6.50696 -0.83138,-1.77661 -1.11657,-2.95906 -1.25714,-5.2122 l -0.18182,-2.91427 -1.98311,0.67171 c -3.11057,1.0536 -7.69317,0.74543 -10.66207,-0.717 -1.24144,-0.61151 -2.76536,-1.63708 -3.3865,-2.27904 -1.07087,-1.10677 -1.11156,-1.24623 -0.78582,-2.69387 1.1096,-4.93137 5.85987,-9.83619 10.47002,-10.81065 0.63059,-0.13329 1.14653,-0.30773 1.14653,-0.38765 0,-0.0799 -0.55122,-0.86744 -1.22494,-1.75006 -2.37699,-3.11403 -3.32105,-8.73254 -2.13716,-12.71915 0.79567,-2.67929 1.20063,-3.05368 3.51015,-3.24521 3.42507,-0.28403 6.50419,0.82329 10.40118,3.7405 l 1.09243,0.81777 v -23.48374 -23.48374 h -4.32703 c -5.03526,0 -6.29035,-0.44457 -7.57341,-2.68256 -0.90866,-1.58494 -0.99907,-2.85982 -0.31836,-4.489 0.58851,-1.4085 2.47464,-3.05546 3.51462,-3.06894 0.55762,-0.007 0.3338,-0.23078 -0.82082,-0.81984 -2.68853,-1.37162 -3.89713,-4.51158 -2.6585,-6.90683 0.68748,-1.32943 2.52645,-2.84273 3.47932,-2.86315 0.5573,-0.0119 0.31042,-0.25395 -0.90399,-0.88615 -3.82829,-1.99295 -4.06653,-6.45502 -0.48747,-9.12979 0.90781,-0.67844 1.53502,-0.73482 9.32681,-0.83828 9.9274,-0.13183 10.98277,-0.0155 12.58024,1.38713 2.9821,2.61832 2.25526,6.77283 -1.53536,8.77585 -1.05342,0.55664 -1.14177,0.67925 -0.49874,0.69208 1.23183,0.0246 3.21324,2.00215 3.65692,3.64985 0.69146,2.56789 -0.52733,4.8626 -3.38006,6.36387 -0.99943,0.52595 -1.01184,0.55774 -0.22308,0.57108 0.48172,0.008 1.39559,0.57446 2.15911,1.33798 1.77054,1.77054 2.1316,3.69979 1.09368,5.84385 -1.05761,2.18471 -2.77444,3.06285 -5.98816,3.06285 h -2.50961 v 6.1244 6.1244 l 3.96875,0.18866 c 2.94559,0.14002 4.73095,0.43325 6.92524,1.13744 10.28626,3.30104 18.74356,9.84617 22.81439,17.65613 1.76244,3.38128 1.7041,3.5734 -1.17283,3.86232 -9.96579,1.00083 -24.23014,-5.9514 -31.00636,-15.11202 l -1.52919,-2.06728 v 14.53924 14.53924 l 1.29831,-1.13993 c 2.81045,-2.46761 7.36446,-3.88739 10.8111,-3.37053 1.2985,0.19472 1.61793,0.41308 2.10815,1.44107 1.04828,2.19826 1.46102,5.50437 1.01969,8.16774 -0.41062,2.47803 -2.13138,6.34635 -3.28916,7.39412 -0.63182,0.5718 -0.57545,0.625 1.35181,1.27564 2.80808,0.948 5.5637,2.87552 7.18965,5.02907 1.3823,1.83085 2.79379,5.23186 2.79379,6.7317 0,0.76209 -1.25168,1.95891 -3.55513,3.39929 -2.56598,1.60456 -8.51683,2.20343 -11.43793,1.15107 -2.07516,-0.7476 -2.38395,-0.68258 -2.1425,0.45114 0.32273,1.51538 -0.38053,4.90678 -1.52437,7.3511 -1.16462,2.48875 -3.49283,5.02595 -5.59697,6.09941 l -1.39353,0.71092 z M 484.69498,303.43199 c -0.13389,-0.82462 -0.85645,-2.81865 -1.60567,-4.43117 -2.03771,-4.38567 -4.26083,-7.57008 -10.11915,-14.49473 -1.99144,-2.35393 -2.22122,-3.23766 -1.30333,-5.01266 0.62532,-1.20925 3.5548,-3.20964 7.2159,-4.92737 l 2.5007,-1.17329 -0.24578,-9.5477 c -0.2817,-10.94263 -0.22932,-11.2144 2.40622,-12.4865 2.66135,-1.28455 4.97613,-1.56871 11.02818,-1.3538 11.38639,0.40432 23.17382,4.07424 28.19326,8.77774 l 1.7986,1.6854 -0.82366,0.64813 c -0.45301,0.35648 -1.3613,0.93767 -2.01842,1.29155 l -1.19475,0.64342 -1.41073,-1.27451 c -4.40928,-3.98352 -15.65687,-7.03511 -26.12605,-7.08827 -3.00743,-0.0153 -5.91632,0.0973 -6.46419,0.25006 l -0.99613,0.27783 0.25303,10.68495 0.25303,10.68494 -2.07912,0.82634 c -2.53707,1.00834 -7.54717,3.47246 -7.54717,3.71192 0,0.0957 1.0407,1.40361 2.31266,2.90648 5.03232,5.94585 9.15847,13.00176 10.20918,17.45819 0.83035,3.52181 0.87031,3.44235 -1.73111,3.44235 h -2.26205 z m 36.28279,-4.35172 c 1.16525,-29.78358 8.77061,-50.29618 20.90221,-56.37585 5.38549,-2.69891 12.21618,-2.67932 17.60677,0.0505 2.20681,1.11753 6.05691,4.98366 7.31541,7.34586 3.52476,6.61597 2.49341,15.12113 -2.50832,20.68526 -1.87345,2.0841 -4.62854,4.07324 -4.62854,3.34174 0,-0.27419 -0.32902,-0.91682 -0.73116,-1.42806 -1.34888,-1.71482 -3.70472,-0.95768 -6.04229,1.94193 -4.10505,5.09206 -6.83631,13.54646 -9.30093,28.79036 l -0.18537,1.14653 h -2.74911 c -1.51201,0 -6.61079,0.10547 -11.33062,0.23439 l -8.58151,0.23439 z m -28.43291,-1.83563 -1.68015,-1.29185 1.75347,-1.75347 1.75347,-1.75348 1.86697,0.57355 c 1.02683,0.31545 3.77196,1.16731 6.10029,1.89303 l 4.23333,1.31948 -5.64444,1.15791 c -3.10444,0.63684 -5.88257,1.15538 -6.17361,1.15229 -0.29104,-0.003 -1.28524,-0.58695 -2.20933,-1.29746 z m -4.14067,-30.23696 c 0,-1.64923 0.0509,-2.99861 0.11315,-2.99861 0.0622,0 2.16566,0.95209 4.6743,2.11576 2.50864,1.16366 4.46393,2.11616 4.34509,2.11666 -0.11884,5.1e-4 -2.16473,0.39779 -4.54643,0.88286 -2.3817,0.48507 -4.3879,0.88194 -4.45823,0.88194 -0.0703,0 -0.12788,-1.34937 -0.12788,-2.99861 z m 89.95833,-11.70732 c 0,-1.71793 -1.11475,-5.53305 -2.45472,-8.40101 -3.47208,-7.43136 -10.08416,-12.89926 -18.18278,-15.03637 -5.60282,-1.4785 -13.56016,-0.81202 -18.99345,1.59084 -4.57246,2.02216 -9.88951,6.54753 -13.30621,11.32498 -1.04759,1.46481 -2.06685,2.59074 -2.26503,2.50205 -9.82037,-4.39482 -16.7486,-6.16602 -26.90804,-6.87904 -9.05473,-0.63549 -15.8825,0.75008 -19.75551,4.009 l -1.07188,0.90192 -3.47633,-2.75675 c -1.91198,-1.51621 -5.74403,-4.54887 -8.51566,-6.73924 l -5.03934,-3.9825 1.51156,-0.96517 c 2.14058,-1.36682 4.41596,-3.97141 5.51184,-6.30932 0.85325,-1.82029 0.93346,-2.35439 0.88343,-5.88262 -0.0303,-2.13431 -0.0507,-4.67431 -0.0455,-5.64445 0.005,-0.97014 10e-4,-3.35139 -0.009,-5.29166 -0.0103,-1.94028 -0.007,-4.32153 0.008,-5.29167 0.13701,-9.09724 0.1392,-9.06999 -0.8997,-11.19987 -1.47387,-3.02165 -4.06749,-5.66151 -7.00732,-7.13224 -1.37099,-0.68588 -2.86826,-1.24706 -3.32726,-1.24706 h -0.83454 v -10.88173 -10.88174 l 2.61538,-0.75993 c 3.20228,-0.93046 3.02906,-0.93421 3.02906,0.0656 0,1.56787 1.40934,6.3287 2.61478,8.83289 5.40104,11.22017 17.67562,17.42507 30.15695,15.2446 9.07284,-1.58501 15.54812,-6.2752 22.11719,-16.01997 0.0418,-0.062 0.75003,0.23104 1.57379,0.65129 2.63457,1.34406 7.46593,3.08319 11.18215,4.0252 15.58926,3.95167 28.24691,3.3044 34.25578,-1.75173 l 1.1004,-0.92593 8.38351,6.62007 c 4.61093,3.64103 8.46288,6.69122 8.55989,6.77819 0.097,0.087 -0.0263,0.23044 -0.27411,0.31881 -1.24328,0.4434 -4.16937,3.21907 -5.39884,5.1213 -1.83782,2.84347 -2.25616,4.4046 -2.19828,8.20338 0.0266,1.74625 0.0448,4.20688 0.0403,5.46806 -0.008,2.34792 -0.007,5.54956 0.004,10.23055 0.003,1.45521 -0.0198,4.07459 -0.0516,5.82084 -0.0528,2.89986 0.0395,3.38053 1.06506,5.54684 1.51584,3.20176 3.85778,5.62648 6.90847,7.15268 1.35796,0.67936 2.84682,1.2352 3.30859,1.2352 h 0.83957 l -0.0932,10.9923 -0.0932,10.9923 -2.29306,0.64799 c -2.98653,0.84395 -3.175,0.82633 -3.175,-0.29686 z M 433.54725,223.13604 c -1.81414,-1.12058 -2.40163,-2.04802 -2.56797,-4.0539 -0.22877,-2.75864 0.91027,-4.64589 3.27352,-5.42383 l 1.05834,-0.34838 -1.23473,-0.53413 c -2.01122,-0.87004 -2.9183,-2.12055 -3.09645,-4.26881 -0.22897,-2.7611 1.042,-4.86317 3.32313,-5.49616 l 1.00805,-0.27972 -1.23473,-0.53639 c -2.07943,-0.90334 -2.93507,-2.1262 -3.09586,-4.42451 -0.11838,-1.69211 -0.004,-2.22592 0.69656,-3.25836 1.14856,-1.69202 2.45559,-2.24699 5.67067,-2.40776 l 2.74219,-0.13713 -0.0964,-6.00988 -0.0964,-6.00988 -2.99861,-0.0882 c -11.01118,-0.32396 -24.48594,-8.15929 -30.00936,-17.4499 -1.49188,-2.50939 -2.29707,-4.50006 -1.95753,-4.83959 0.49971,-0.49971 4.41626,-0.73693 7.11116,-0.43071 5.72504,0.65052 12.28129,3.17318 17.55562,6.75491 2.56638,1.7428 7.5252,6.42722 8.8929,8.40081 0.53493,0.77191 1.11291,1.40347 1.28439,1.40347 0.17569,0 0.30219,-6.15937 0.28981,-14.11111 -0.0121,-7.76111 -0.1068,-14.11111 -0.21048,-14.11111 -0.10369,0 -1.07922,0.63782 -2.16786,1.41738 -3.20051,2.29183 -8.24021,3.45269 -10.7865,2.48459 -1.2785,-0.48609 -2.39558,-3.70842 -2.40828,-6.94695 -0.0127,-3.23031 0.73267,-5.77563 2.48531,-8.48731 l 1.39005,-2.15067 -1.03338,-0.20668 c -1.94325,-0.38865 -5.03687,-2.16065 -6.73796,-3.85945 -1.90574,-1.90319 -3.25496,-4.30911 -3.81305,-6.79939 -0.36437,-1.62592 -0.34336,-1.70258 0.78636,-2.8692 0.63841,-0.65926 2.1431,-1.68256 3.34376,-2.274 2.81547,-1.38688 6.90852,-1.73214 10.28089,-0.86723 1.22834,0.31504 2.27951,0.5728 2.33592,0.5728 0.0564,0 0.17411,-1.23577 0.26154,-2.74616 0.21381,-3.6934 1.77515,-7.1428 4.32445,-9.55382 1.00198,-0.94763 2.30563,-1.97318 2.89701,-2.27899 1.00436,-0.51937 1.16578,-0.5084 2.44898,0.16646 2.20765,1.16105 4.32108,3.46543 5.6648,6.17659 1.04284,2.1041 1.28193,3.02182 1.43769,5.51846 l 0.18683,2.99465 1.27554,-0.56487 c 0.90187,-0.39939 2.36071,-0.56669 4.97972,-0.57108 4.39373,-0.007 6.73383,0.74751 9.28864,2.99634 1.47375,1.29725 1.58564,1.51227 1.41657,2.72226 -0.29078,2.08103 -2.13063,5.55987 -3.84948,7.27872 -1.58878,1.58878 -6.02889,4.08922 -7.26137,4.08922 -0.57307,0 -0.47513,0.30084 0.71783,2.20486 0.7598,1.21267 1.65187,2.99861 1.98239,3.96875 1.36555,4.00817 0.27344,10.67658 -1.88697,11.52184 -1.36842,0.5354 -5.72721,0.12015 -7.64538,-0.72835 -0.90842,-0.40184 -2.42967,-1.30172 -3.38056,-1.99974 l -1.72889,-1.26912 v 23.31338 23.31338 h 3.94556 c 3.26292,0 4.20531,0.12574 5.44685,0.72676 1.65695,0.80211 2.95942,2.90641 2.949,4.76448 -0.009,1.56059 -1.40029,3.70131 -2.91415,4.48308 l -1.33246,0.68809 1.35937,0.67256 c 1.86803,0.92423 3.03525,3.03413 2.80561,5.07151 -0.22202,1.96974 -1.29194,3.43725 -3.16995,4.34794 -0.9064,0.43953 -1.24102,0.73685 -0.8412,0.74744 1.20021,0.0318 2.91632,1.39148 3.56121,2.8216 1.17351,2.60237 0.0937,5.66133 -2.41941,6.85388 -1.01697,0.48258 -2.64109,0.57245 -10.32569,0.57134 -8.2606,-0.001 -9.21852,-0.0628 -10.17724,-0.65505 z m 48.14602,-48.82983 c -7.55702,-2.57672 -12.35611,-9.26123 -12.33046,-17.17473 0.0145,-4.46487 1.18496,-7.86163 3.88689,-11.27982 1.30839,-1.65524 4.34299,-4.25648 4.96561,-4.25648 0.16114,0 0.53807,0.47395 0.83763,1.05323 1.7,3.28744 6.01284,0.40184 9.18343,-6.14438 2.58796,-5.3433 4.72041,-12.9279 6.03228,-21.45537 l 0.58342,-3.79237 h 2.89255 c 1.5909,0 6.71224,-0.10432 11.38075,-0.23184 l 8.48822,-0.23184 -0.15108,3.14226 c -0.69519,14.45898 -1.94999,23.97469 -4.37478,33.17587 -4.10987,15.5954 -11.10463,24.98654 -20.4662,27.47786 -2.98965,0.79562 -8.15841,0.66205 -10.92826,-0.28239 z m 56.80536,-8.75375 c -8.90839,-1.14576 -18.12756,-4.41137 -22.48999,-7.96637 -2.42796,-1.97859 -2.4507,-2.27322 -0.27581,-3.57408 l 1.88061,-1.12484 1.18218,1.11437 c 2.95292,2.78353 12.69864,6.06548 20.80531,7.00636 3.7462,0.43479 11.20806,0.32388 12.41175,-0.18448 0.59837,-0.25271 0.63097,-0.92135 0.52917,-10.85291 -0.0935,-9.12255 -0.0354,-10.62255 0.42067,-10.86574 0.29104,-0.15518 2.39448,-1.15706 4.67431,-2.2264 2.27982,-1.06934 4.14514,-2.04215 4.14514,-2.1618 0,-0.11965 -0.96671,-1.35935 -2.14825,-2.75489 -2.70723,-3.19757 -6.92878,-9.5113 -8.60528,-12.87002 -1.09305,-2.18982 -2.27192,-6.18085 -2.29313,-7.76329 -0.005,-0.33983 0.60395,-0.43033 2.37193,-0.35278 l 2.37806,0.10432 0.2403,1.68802 c 0.51208,3.59723 4.37693,10.06829 10.13888,16.97586 3.48264,4.17509 3.72279,4.83102 2.50184,6.83355 -0.80906,1.32699 -4.08847,3.51288 -7.36563,4.90958 l -2.25211,0.95983 0.23037,6.71797 c 0.46513,13.56412 0.4639,13.57636 -1.503,14.97692 -1.79952,1.28137 -4.72915,1.79897 -9.90769,1.75048 -2.62711,-0.0246 -5.80845,-0.17745 -7.06963,-0.33966 z m 6.5344,-15.72015 c -2.32393,-1.06145 -4.26859,-1.97317 -4.32146,-2.02604 -0.0529,-0.0529 1.61041,-0.45371 3.69617,-0.89077 2.08575,-0.43705 4.14947,-0.87763 4.58603,-0.97906 0.77596,-0.18028 0.79375,-0.11634 0.79375,2.85244 0,1.67027 -0.11906,3.02257 -0.26458,3.00511 -0.14552,-0.0175 -2.16598,-0.90022 -4.48991,-1.96168 z m -7.50454,-28.27754 c -2.95892,-0.8955 -5.37986,-1.71545 -5.37986,-1.82211 0,-0.10667 2.60379,-0.71904 5.7862,-1.36083 l 5.7862,-1.1669 1.82332,1.30992 1.82331,1.30992 -1.68722,1.71298 c -0.92798,0.94215 -1.93132,1.69774 -2.22966,1.67909 -0.29833,-0.0186 -2.96336,-0.76658 -5.92229,-1.66207 z M 491.82492,96.91539 c -2.27325,-4.397138 -4.0594,-8.068572 -3.96923,-8.158743 0.0902,-0.09017 2.57792,0.06344 5.52834,0.341362 l 5.3644,0.50531 1.26607,-2.049585 c 0.69634,-1.127272 1.90108,-3.061618 2.67719,-4.298547 l 1.41111,-2.248961 5.11528,2.909321 5.11528,2.909321 4.49228,-4.442324 4.49228,-4.442324 4.75716,3.254027 4.75716,3.254026 3.61123,-2.335929 c 1.98618,-1.284761 4.19202,-2.702565 4.90187,-3.150675 l 1.29065,-0.814747 3.13479,4.271938 c 1.72414,2.349566 3.21806,4.392799 3.31982,4.540517 0.10176,0.147718 2.6375,-0.348574 5.63498,-1.102873 2.99748,-0.754298 5.51682,-1.304592 5.59853,-1.222876 0.0817,0.08172 -0.7133,4.636808 -1.7667,10.122426 l -1.91529,9.973856 -30.34201,0.0901 -30.34202,0.0901 z"
       id="path1"
       sodipodi:nodetypes="ssssscccsscsscscssscsssssscsssssssssscccssscssssssssssscssscccssssscccssssssssssssscsssssscsssscsscssscccssssscsssssssssscsscsscccsscsssssssssscssssssscsscssscccssscccsssssssscsssssccsssscccscccsscssscsscscccssssssssssssscssssssssssssscscssssssssscccsscscsssssscccssssssscsscssssssscssssssssscscsssscsssssssssssssscccsssssscsscccccccsscssssscccs" /></g></svg>
