<?xml version="1.0" encoding="UTF-8" standalone="no"?>
<!-- Created with Inkscape (http://www.inkscape.org/) -->

<svg
   width="24.313745mm"
   height="24.433828mm"
   viewBox="0 0 24.313745 24.433828"
   version="1.1"
   id="svg1"
   xml:space="preserve"
   sodipodi:docname="spinning.svg"
   inkscape:version="1.3.2 (091e20e, 2023-11-25, custom)"
   xmlns:inkscape="http://www.inkscape.org/namespaces/inkscape"
   xmlns:sodipodi="http://sodipodi.sourceforge.net/DTD/sodipodi-0.dtd"
   xmlns="http://www.w3.org/2000/svg"
   xmlns:svg="http://www.w3.org/2000/svg"><sodipodi:namedview
     id="namedview1"
     pagecolor="#ffffff"
     bordercolor="#000000"
     borderopacity="0.25"
     inkscape:showpageshadow="2"
     inkscape:pageopacity="0.0"
     inkscape:pagecheckerboard="0"
     inkscape:deskcolor="#d1d1d1"
     inkscape:document-units="mm"
     inkscape:zoom="8.4137961"
     inkscape:cx="45.995885"
     inkscape:cy="46.174164"
     inkscape:window-width="1920"
     inkscape:window-height="991"
     inkscape:window-x="-9"
     inkscape:window-y="-9"
     inkscape:window-maximized="1"
     inkscape:current-layer="layer1" /><defs
     id="defs1" /><g
     inkscape:label="Layer 1"
     inkscape:groupmode="layer"
     id="layer1"
     transform="translate(-145.10689,-143.03299)"><path
       style="fill:#ffffff;fill-opacity:1"
       d="m 157.11536,167.23891 c -0.10143,-0.16411 -0.34987,-1.09367 -0.5521,-2.06569 -0.3726,-1.79093 -1.69293,-5.33675 -1.9878,-5.33832 -0.0884,-4.8e-4 -0.35271,0.95608 -0.5873,2.12569 -0.23459,1.1696 -0.6639,2.66319 -0.95404,3.31908 l -0.52751,1.19253 -0.80341,-0.41546 c -0.44188,-0.2285 -0.80341,-0.4568 -0.80341,-0.50733 0,-0.0505 0.2368,-0.6272 0.52623,-1.2815 0.57276,-1.29481 1.49694,-6.20306 1.22011,-6.47989 -0.0941,-0.0941 -0.3654,0.11945 -0.60298,0.47448 -0.58827,0.87907 -3.31157,3.55557 -3.98381,3.91534 -0.46305,0.24781 -0.61368,0.18694 -1.00129,-0.40463 l -0.45625,-0.69632 1.49185,-1.30858 c 1.59197,-1.39642 4.01902,-4.36584 3.77107,-4.61379 -0.0821,-0.0821 -0.66018,0.0555 -1.28469,0.30566 -1.59071,0.63728 -5.01393,1.26267 -5.30705,0.96955 -0.13136,-0.13136 -0.19898,-0.51063 -0.15028,-0.84284 0.0768,-0.5237 0.40511,-0.68245 2.4698,-1.19409 3.57843,-0.88675 6.33202,-2.23168 4.56912,-2.23168 -0.8728,0 -3.52475,-0.71665 -4.89508,-1.32281 l -1.15283,-0.50995 0.39233,-0.75869 0.39233,-0.75869 2.19915,0.72788 c 1.20953,0.40033 3.0176,0.81238 4.01794,0.91566 l 1.81881,0.18778 -2.41412,-2.38896 c -1.32776,-1.31392 -2.41411,-2.50631 -2.41411,-2.64974 0,-0.14344 0.30594,-0.46125 0.67987,-0.70626 l 0.67988,-0.44547 1.57761,1.72168 c 1.549,1.69047 4.11577,3.78513 4.35054,3.55036 0.0656,-0.0656 -0.16903,-0.967 -0.52143,-2.00308 -0.35239,-1.03608 -0.67956,-2.5147 -0.72703,-3.28581 -0.0861,-1.39788 -0.084,-1.40203 0.70011,-1.40203 0.72358,0 0.8024,0.0936 0.98629,1.17073 0.37283,2.18396 1.92428,6.3699 2.36091,6.3699 0.1276,0 0.232,-0.26029 0.232,-0.57841 0,-0.94152 0.8217,-3.9726 1.37319,-5.06543 0.48545,-0.96195 0.54103,-0.99372 1.09052,-0.62324 0.67511,0.45519 0.66947,0.74705 -0.062,3.2119 -0.30025,1.01179 -0.62531,2.61457 -0.72235,3.56173 l -0.17643,1.72211 2.09279,-2.13636 c 1.15104,-1.175 2.35601,-2.27345 2.6777,-2.44099 0.51514,-0.26829 0.63023,-0.21811 0.96491,0.42064 0.37415,0.71409 0.35419,0.7489 -1.29623,2.26122 -1.75745,1.61038 -3.73254,4.08127 -3.47122,4.34259 0.0841,0.0841 0.61426,-0.0316 1.17805,-0.25718 0.83172,-0.33278 4.6427,-1.24358 5.20343,-1.24358 0.0789,0 0.14345,0.41445 0.14345,0.921 0,0.98816 0.0352,0.96722 -2.24896,1.33608 -1.32956,0.21469 -5.15937,1.67579 -5.15937,1.96832 0,0.12001 0.77117,0.35249 1.71372,0.51662 2.08997,0.36396 4.63628,1.30757 4.63628,1.71812 0,0.1657 -0.18512,0.56558 -0.41138,0.88861 -0.37975,0.54217 -0.46713,0.55851 -1.13622,0.21251 -0.99172,-0.51284 -3.54879,-1.1395 -5.46386,-1.33903 l -1.5875,-0.1654 1.51251,1.40335 c 1.69309,1.57091 3.1177,3.29747 3.1177,3.77852 0,0.17491 -0.31874,0.46325 -0.70832,0.64075 -0.60445,0.27541 -0.74514,0.25693 -0.95946,-0.12605 -0.71475,-1.27719 -5.05703,-5.11679 -5.39944,-4.77438 -0.0634,0.0634 0.17887,1.04908 0.53829,2.19048 0.35942,1.14141 0.69554,2.61107 0.74694,3.26591 0.0879,1.11951 0.0515,1.19549 -0.60917,1.27194 -0.38644,0.0447 -0.7856,-0.053 -0.88702,-0.21706 z m 1.466,-9.65831 c 0.42688,-0.22075 0.9698,-0.77586 1.2065,-1.23359 0.60158,-1.16332 0.13899,-2.69034 -1.03113,-3.40381 -1.10147,-0.67161 -1.75821,-0.65167 -2.85688,0.0867 -1.67612,1.12648 -1.63212,3.37388 0.0866,4.42176 1.03996,0.63406 1.56744,0.66027 2.59494,0.12893 z"
       id="path1" /></g></svg>
