<?xml version="1.0" encoding="UTF-8" standalone="no"?>
<!-- Created with Inkscape (http://www.inkscape.org/) -->

<svg
   width="30.26498mm"
   height="42.590603mm"
   viewBox="0 0 30.26498 42.590603"
   version="1.1"
   id="svg1"
   xmlns:inkscape="http://www.inkscape.org/namespaces/inkscape"
   xmlns:sodipodi="http://sodipodi.sourceforge.net/DTD/sodipodi-0.dtd"
   xmlns="http://www.w3.org/2000/svg"
   xmlns:svg="http://www.w3.org/2000/svg">
  <sodipodi:namedview
     id="namedview1"
     pagecolor="#ffffff"
     bordercolor="#000000"
     borderopacity="0.25"
     inkscape:showpageshadow="2"
     inkscape:pageopacity="0.0"
     inkscape:pagecheckerboard="0"
     inkscape:deskcolor="#d1d1d1"
     inkscape:document-units="mm" />
  <defs
     id="defs1" />
  <g
     inkscape:label="Layer 1"
     inkscape:groupmode="layer"
     id="layer1"
     transform="translate(-272.18183,-162.51432)">
    <path
       style="font-size:56.9502px;font-family:'Electronic Highway Sign';-inkscape-font-specification:'Electronic Highway Sign';text-align:center;text-anchor:middle;fill:#ffffff;stroke-width:4.69054;stroke-linecap:round;stroke-linejoin:round"
       d="m 284.5075,205.10493 v -5.57298 h 5.61367 v 5.57298 z m 0,-6.14248 v -5.61367 h 5.61367 v 5.61367 z m 0,-6.18317 v -5.61366 h 5.61367 v 5.61366 z m 0,-6.14248 v -5.61367 h 5.57299 v 5.61367 z m 0,-6.18317 v -5.57298 h 5.57299 v 5.57298 z m 0,-6.14248 v -5.61367 h 5.57299 v 5.61367 z m -12.32565,-6.18317 v -5.61366 h 5.57299 v 5.61366 z m 6.14249,0 v -5.61366 h 5.61366 v 5.61366 z m 6.18316,0 v -5.61366 h 5.57299 v 5.61366 z m 6.14249,0 v -5.61366 h 5.61366 v 5.61366 z m 6.18316,0 v -5.61366 h 5.61367 v 5.61366 z"
       id="text1"
       aria-label="T" />
    <path
       style="font-size:56.9502px;font-family:'Electronic Highway Sign';-inkscape-font-specification:'Electronic Highway Sign';text-align:center;text-anchor:middle;fill:#dd1717;fill-opacity:1;stroke-width:4.69054;stroke-linecap:round;stroke-linejoin:round"
       d="m 292.87741,205.10493 v -5.57298 h 5.61366 v 5.57298 z m 0,-6.14248 h 5.61366 z"
       id="text2"
       aria-label="T"
       sodipodi:nodetypes="cccccccc" />
  </g>
</svg>
